# xmcd
#
# Track frame offsets:
#	150
#	3498
#	27142
#	48661
#	81578
#	105136
#	121709
#	133565
#	161874
#	189100
#	208650
#	235232
#	271970
#	290400
#	306751
#
# Disc length: 4314 seconds
#
# Revision: 2
# Processed by: cddbd v1.5.2PL0 Copyright (c) Steve Scherf et al.
# Submitted via: audiograbber 1.83.01
#
DISCID=c510d80f
DTITLE=Hans Theessink - 65 Birthday Bash
DYEAR=2014
DGENRE=Blues
TTITLE0=Welcome [live]
TTITLE1=Tears Are Rolling [live]
TTITLE2=He's On The Road Again [live]
TTITLE3=New Home Upon The Hill [live]
TTITLE4=Call Me [live]
TTITLE5=Der Zug [live]
TTITLE6=Brief von Lukas [live]
TTITLE7=Deportees [live]
TTITLE8=Honest I Do [live]
TTITLE9=Love You Baby [live]
TTITLE10=Leaving At Daybreak [live]
TTITLE11=No Expectations [live]
TTITLE12=Gö, Du bleibst heut Nacht bei mir [live]
TTITLE13=May The Road [live]
TTITLE14=Ring Of Fire [live]
EXTD=
EXTT0=
EXTT1=
EXTT2=
EXTT3=
EXTT4=
EXTT5=
EXTT6=
EXTT7=
EXTT8=
EXTT9=
EXTT10=
EXTT11=
EXTT12=
EXTT13=
EXTT14=
PLAYORDER=
